<svg xmlns="http://www.w3.org/2000/svg" id="Layer_1" x="0" y="0" version="1.1" viewBox="0 0 659.6 111.2" xml:space="preserve"><style>.st0{fill:#232323}.st1{fill:#4285f4}.st2{fill:#fff}</style><path d="M111.1 109.9h-7V18.1l-1.4-.5c-.9 1.4-1.9 2.8-2.7 4.2-13.4 23-26.7 46.1-40 69.2-3.7 6.3-5.2 6.3-9-.1C37.8 68.2 24.7 45.6 11.6 23c-1-1.9-2.5-3.6-4.2-4.8v91.5H.3c-.1-2-.3-3.9-.3-5.8C0 71.8 0 39.6.1 7.5.1 5.2.7 1.6 2.2.9 6-.9 7.4 2.8 9 5.5c14.7 25.4 29.3 50.7 44 76.1.7 1.1 1.4 2.2 2.6 4 4.7-8 9.1-15.5 13.5-23 11.2-19.3 22.3-38.7 33.5-58 .3-.6.5-1.4 1-1.7 1.7-1 3.6-1.8 5.5-2.1.5-.1 1.8 2.8 1.8 4.3.1 26.3.2 52.6.2 79v25.8zM525.4 14.2l-4.9 5.2C505.5 6.2 488.2 4.1 470.1 9c-22.2 6.1-35.8 26.9-34 50.8 1.7 22.5 19.3 40.7 41.9 43.6 12.1 1.5 23.5 0 34.3-5.9 3.7-2 5.5-4.5 5.3-9-.4-8.6-.1-17.3-.1-26 0-2 .2-3.9.3-6.1h6.7c.1 1.6.3 3 .3 4.4 0 10.7.2 21.3-.1 32-.2 2.5-1.3 4.9-3.2 6.6-16.1 13.5-45.2 15.3-65.2 4.2-19.7-10.8-30.7-32.7-27.5-55 3.8-28.3 24.2-47 52.8-48.6 11.2-.6 22 1 31.9 6.3 4 2.2 7.5 5 11.9 7.9zM304.3 109.7V67.8c1.9-.1 3.7-.3 5.5-.3 11.2 0 22.3.1 33.5-.1 3.8 0 7.6-.3 11.4-1 17.3-3.3 25.3-13.9 24.6-31.9-.6-14.4-11.4-25.4-27.5-26.4-13.4-.9-27-.6-40.4-.9h-6.9V.5h9c13.1.2 26.3-.2 39.4 1 14.8 1.4 27 8 32.1 23.1 5.9 17.4.3 38.9-20.2 45.9-.9.3-1.8.8-3.3 1.5l26.5 37.4c-5 1.3-8.2.6-11-3.6-6.6-9.8-13.7-19.2-20.5-29-1.7-2.5-3.5-3.2-6.6-3.1-11.3.4-22.7.4-34 .2-3.8-.1-4.9 1.3-4.8 4.9.2 10.1.1 20.3.1 30.8l-6.9.1zM659.6 1.1c-5.8 9.5-11.5 18.7-17.1 27.9-8.4 13.6-16.8 27.2-25 40.9-1.1 2-1.6 4.3-1.6 6.6-.2 11-.1 21.9-.1 33.3h-7.6c0-8.9-.4-17.9.1-26.8.4-7.3-1.6-13.4-5.5-19.6-12.2-19.1-23.8-38.5-35.6-57.8-.8-1.4-1.5-2.8-2.4-4.4 4.8-1.5 7.8-.6 10.3 3.6 11 18.4 22.3 36.7 33.5 55 1 1.7 2.1 3.3 3.5 5.5 1.4-2.1 2.6-3.6 3.6-5.3 11.2-18.1 22.4-36.2 33.3-54.5 2.5-3.9 5-6 10.6-4.4z" class="st0"/><path d="M152.1.2h111v111h-111z" class="st1"/><path d="M159.1 7.2h97v97h-97z" class="st1"/><path d="M159.1 7.2h45v97h-45zM208.1 7.2h48v46h-48zM208.1 57.2h48v47h-48z" class="st2"/></svg>